<svg class="svg-icon" style="width: 1em; height: 1em;vertical-align: middle;fill: currentColor;overflow: hidden;" viewBox="0 0 1024 1024" version="1.1" xmlns="http://www.w3.org/2000/svg"><path d="M668.260487 892.92871A222.249463 222.249463 0 0 1 512.016 960.000347a222.078797 222.078797 0 0 1-156.244487-67.071637 31.999827 31.999827 0 1 0-45.951751 44.586425A286.590448 286.590448 0 0 0 511.717335 1024h0.511997a286.590448 286.590448 0 0 0 201.897573-86.484865 31.999827 31.999827 0 0 0-45.866418-44.586425z"  /><path d="M543.97316 896.000693a31.999827 31.999827 0 0 0 0-63.999653h-63.999653a31.999827 31.999827 0 0 0 0 63.999653h63.999653zM939.832349 706.305721l-90.452843-36.181138c9.770614-52.181051 14.84792-105.258097 14.591921-158.292475a287.486443 287.486443 0 0 0-8.959952-69.930288A221.609466 221.609466 0 0 0 1024.013227 224.004333 224.254785 224.254785 0 0 0 800.01444 0.005547a224.425451 224.425451 0 0 0-222.548128 198.228259 539.175746 539.175746 0 0 0-66.559639-6.229299 520.530514 520.530514 0 0 0-63.999654 6.143966A220.884137 220.884137 0 0 0 231.484186 0.005547h-6.869296C103.826211-0.805116 2.237428 94.938366 0.018773 216.537707v7.125295a221.780132 221.780132 0 0 0 168.959085 218.281484 286.974446 286.974446 0 0 0-8.959951 69.930288 842.022106 842.022106 0 0 0 14.549254 158.249809l-90.49551 36.181138a31.999827 31.999827 0 1 0 23.765205 59.391678l159.999133-63.999653a31.999827 31.999827 0 1 0-23.765204-59.434345l-8.02129 3.199983c-7.466626-44.117094-12.287933-88.660853-12.074601-133.332611a223.657455 223.657455 0 0 1 16.810575-84.052878 32.08516 32.08516 0 0 0-27.775849-44.117095A157.993811 157.993811 0 0 1 64.018427 223.407003v-5.717302C65.597085 131.375502 137.404696 61.359881 224.61489 64.0052h5.717302A156.884484 156.884484 0 0 1 384.016693 224.004333v12.799931a31.914494 31.914494 0 0 0 39.295787 31.146498A462.504161 462.504161 0 0 1 510.906673 256.00416c30.16517 1.023994 60.33034 5.077306 89.77018 11.946602A31.914494 31.914494 0 0 0 640.015307 236.804264v-12.799931c0-88.234189 71.807611-159.999133 159.999133-159.999133s159.999133 71.764945 159.999133 160.383131a157.993811 157.993811 0 0 1-149.033859 159.700469 32.042493 32.042493 0 0 0-27.818516 44.117094 223.145458 223.145458 0 0 1 16.853242 84.010211c0.213332 44.714424-4.607975 89.258183-12.117268 133.375278l-8.063956-3.242649a31.999827 31.999827 0 1 0-23.765205 59.434345l159.999134 63.999653a31.999827 31.999827 0 0 0 23.765204-59.477011z"  /><path d="M758.585331 745.388176a31.999827 31.999827 0 1 0-45.269088 45.269088l95.99948 95.99948a31.914494 31.914494 0 0 0 45.226422 0 31.999827 31.999827 0 0 0 0-45.269088l-95.956814-95.99948zM310.587758 745.388176a31.999827 31.999827 0 0 0-45.269088 0l-95.99948 95.99948a31.999827 31.999827 0 1 0 45.269088 45.226422l95.99948-95.99948a31.95716 31.95716 0 0 0 0-45.226422z"  /><path d="M364.774131 499.202843m-51.199723 0a51.199723 51.199723 0 1 0 102.399446 0 51.199723 51.199723 0 1 0-102.399446 0Z"  /><path d="M652.815237 499.202843m-51.199722 0a51.199723 51.199723 0 1 0 102.399445 0 51.199723 51.199723 0 1 0-102.399445 0Z"  /></svg>